<svg viewBox="0 -80 270 400" xmlns="http://www.w3.org/2000/svg" fill="none" stroke="#000" stroke-width="3"><g transform="rotate(-90, 160, 160)"><defs><linearGradient id="eggGradient" x1="0%" y1="0%" x2="100%" y2="0"><stop offset="0%" stop-color="#b3d8d9"></stop><stop offset="30%" stop-color="#b3d8d9"></stop><stop offset="35%" stop-color="#c1fcc1"></stop><stop offset="60%" stop-color="#c1fcc1"></stop><stop offset="70%" stop-color="#ff9faa"></stop><stop offset="100%" stop-color="#ff9faa"></stop></linearGradient></defs><path transform="scaleX(0.9)" d="m15 134.99c-0.0947-24.82 6.2099-50.094 20.678-70.294 16.302-22.761 41.953-37.686 68.962-45.268 36.305-10.192 75.107-8.0428 112.09-0.66784 39.009 7.7788 76.974 21.336 111.36 41.289 14.236 8.263 28.01 17.757 38.712 30.24 10.702 12.484 18.167 28.28 18.2 44.7 0.033 16.363-7.3191 32.141-17.918 44.636-10.598 12.496-24.278 22.027-38.44 30.304-34.321 20.059-72.335 33.527-111.36 41.289-36.989 7.359-75.797 9.566-112.09-0.6679-27.288-7.6944-53.135-22.931-69.515-46.004-14.236-20.053-20.584-44.993-20.678-69.558z" fill="url(#eggGradient)"></path></g></svg>